<?xml version="1.0" encoding="UTF-8"?>
<svg version="1.1" xmlns="http://www.w3.org/2000/svg" width="512" height="512">
<path d="M0 0 C19.33999538 16.14531877 33.2333951 39.32119066 36.29248047 64.63623047 C36.4203101 67.32946847 36.39241362 69.93803525 36.29248047 72.63623047 C36.96923828 72.84763672 37.64599609 73.05904297 38.34326172 73.27685547 C54.10465358 80.54170894 65.87970902 98.09959719 72.29248047 113.63623047 C72.29248047 114.29623047 72.29248047 114.95623047 72.29248047 115.63623047 C73.15486328 115.74064453 74.01724609 115.84505859 74.90576172 115.95263672 C87.69211083 118.53350303 98.82120069 128.28125254 106.05493164 138.77197266 C115.67977717 153.53020246 119.01760216 169.76643619 116.11279297 187.14013672 C112.50949768 202.49703805 103.27122894 217.38014663 89.81982422 225.93310547 C79.71785715 232.00486653 70.38969103 235.74028256 58.45254517 235.78340149 C57.78900508 235.78707818 57.125465 235.79075487 56.44181764 235.79454297 C54.23138601 235.80550401 52.02100151 235.80941074 49.81054688 235.81323242 C48.21987766 235.81950308 46.6292099 235.82615041 45.0385437 235.83314514 C39.82372038 235.85412607 34.60889698 235.86454577 29.39404297 235.87451172 C27.59215658 235.87856228 25.79027034 235.88267929 23.98838425 235.8868618 C15.51587858 235.90590477 7.04338154 235.92013454 -1.4291414 235.92847377 C-11.17417139 235.93822629 -20.91897304 235.96449755 -30.66392267 236.00497466 C-38.21752393 236.03526061 -45.77106024 236.04995463 -53.32472098 236.05325478 C-57.8256169 236.05559212 -62.32626867 236.0643786 -66.82709885 236.08971596 C-71.07075678 236.1132196 -75.31401371 236.11714177 -79.55772018 236.10695457 C-81.10229843 236.10646438 -82.64689794 236.11262946 -84.19141388 236.12651062 C-97.60236206 236.24014565 -110.91217893 234.39986865 -122.95751953 228.07373047 C-123.61171875 227.73712402 -124.26591797 227.40051758 -124.93994141 227.05371094 C-131.87624507 223.29288093 -137.32500805 218.34861186 -142.70751953 212.63623047 C-143.45646484 211.84474609 -144.20541016 211.05326172 -144.97705078 210.23779297 C-156.04796012 197.49460479 -161.3052404 181.07891951 -161.14501953 164.38623047 C-161.13889648 163.2944751 -161.13277344 162.20271973 -161.12646484 161.07788086 C-160.92553543 150.64114327 -159.37707581 141.37819795 -154.39501953 132.07373047 C-152.40111343 128.01206989 -152.66938927 126.9385315 -153.70751953 122.63623047 C-154.62490914 120.10928902 -155.57910936 117.62741376 -156.58251953 115.13623047 C-165.95329378 90.50224055 -165.83805395 62.77111681 -155.52001953 38.38623047 C-143.83713418 12.57897515 -123.26648151 -6.59589995 -96.79785156 -16.61621094 C-64.06246048 -28.32326157 -26.98150811 -21.54971466 0 0 Z " fill="#241815" transform="translate(314.70751953125,184.36376953125)"/>
<path d="M0 0 C1.00595215 0.00829834 2.0119043 0.01659668 3.04833984 0.02514648 C21.72605755 0.44535775 37.4992729 7.55610878 50.44433594 20.96826172 C57.66963233 28.72733269 62.00494289 36.34638013 65.328125 46.28515625 C67.5146602 50.92866653 70.18223568 51.82087153 74.828125 53.578125 C76.42914063 54.12726563 76.42914063 54.12726563 78.0625 54.6875 C88.68956966 58.7130867 98.16877221 66.25854251 103.38671875 76.5390625 C108.798971 89.28654487 109.42511111 101.17857737 104.8125 114.4375 C100.51326434 124.78938508 92.87798539 132.89492737 83.07421875 138.18359375 C72.87818874 142.10326517 63.1805316 142.87514627 52.33618164 142.82568359 C50.81857427 142.82975864 49.30096986 142.83510571 47.78337097 142.84161377 C43.69648688 142.85518358 39.60983232 142.8500316 35.52294469 142.84047651 C31.22357822 142.83282448 26.92423 142.83994092 22.62486267 142.84463501 C15.40685538 142.85007713 8.18894049 142.84294227 0.97094727 142.82861328 C-7.34404886 142.81229594 -15.65882414 142.81757484 -23.9738149 142.8340925 C-31.14364653 142.84775897 -38.31341213 142.84960174 -45.48325258 142.84177649 C-49.75194795 142.83712741 -54.02053994 142.83639804 -58.28922844 142.84638596 C-62.30558791 142.85512871 -66.32166607 142.8489022 -70.33799553 142.83170319 C-71.80158016 142.82777671 -73.26518896 142.82880544 -74.72876358 142.83549118 C-93.20397682 142.91202862 -108.35560384 138.88499179 -121.96875 125.890625 C-133.25340044 113.41393402 -137.87207549 98.96997542 -137.4296875 82.4296875 C-136.50814901 67.23916597 -129.44935287 53.63962509 -118.1875 43.4375 C-105.83743785 34.03481725 -91.72142116 29.28190071 -76.1875 30.4375 C-74.45193961 30.73575927 -72.72187353 31.06833875 -71 31.4375 C-64.64128968 32.80846462 -64.64128968 32.80846462 -58.1875 32.4375 C-55.40555726 30.10444824 -53.33068992 27.35347475 -51.1875 24.4375 C-39.62306803 8.81174966 -19.14312422 -0.20523187 0 0 Z " fill="#FEFEFE" transform="translate(307.1875,261.5625)"/>
<path d="M0 0 C1.051875 0.350625 2.10375 0.70125 3.1875 1.0625 C20.78791592 7.66265597 36.04988881 21.57913483 45 38 C45.68642578 39.19496094 45.68642578 39.19496094 46.38671875 40.4140625 C50.34049306 47.70420492 54 56.62864015 54 65 C53.3596582 64.85997559 52.71931641 64.71995117 52.05957031 64.57568359 C26.75939198 59.46047056 3.56614502 63.27766436 -18.13671875 76.98046875 C-28.4636754 84.18119345 -28.4636754 84.18119345 -36 94 C-37.155 93.835 -38.31 93.67 -39.5 93.5 C-60.82341664 91.22371691 -80.44655128 95.09475069 -98 108 C-99.0828125 109.09634766 -99.0828125 109.09634766 -100.1875 110.21484375 C-102 112 -102 112 -104 112 C-104.8175507 109.45986091 -105.62915186 106.91806769 -106.4375 104.375 C-106.66759766 103.66214844 -106.89769531 102.94929688 -107.13476562 102.21484375 C-113.81076561 81.12255395 -110.62051352 58.32306419 -100.93066406 38.77441406 C-98.69519892 34.5122523 -96.02935165 30.72794427 -93 27 C-92.33355469 26.17113281 -91.66710937 25.34226563 -90.98046875 24.48828125 C-68.69646437 -1.73055633 -32.43233177 -11.00382685 0 0 Z " fill="#F7B52C" transform="translate(279,184)"/>
<path d="M0 0 C2.92539902 1.99176104 4.58729794 3.44924075 5.515625 6.9375 C5.83289749 10.74476987 5.83289749 10.74476987 5 13 C-0.03458266 18.06848558 -6.35152401 21.20095031 -12.5625 24.625 C-14.6057318 25.76254849 -16.64870945 26.90055359 -18.69140625 28.0390625 C-19.59060791 28.53615723 -20.48980957 29.03325195 -21.41625977 29.54541016 C-23.19767238 30.54830691 -24.95847304 31.58840991 -26.70068359 32.65795898 C-30.405658 34.8204398 -32.75536469 34.47162615 -37 34 C-40.29291844 31.88915485 -40.88775952 30.35652858 -42.0625 26.625 C-41.9961613 22.7773555 -41.39383567 21.48301484 -38.89233398 18.65917969 C-34.63788992 14.92892529 -29.4621525 12.46937822 -24.5 9.8125 C-22.26021327 8.59021639 -20.02062269 7.36757326 -17.78125 6.14453125 C-16.79189453 5.61190674 -15.80253906 5.07928223 -14.78320312 4.53051758 C-12.94395698 3.51909354 -11.13322965 2.45378413 -9.35742188 1.3347168 C-6.00477798 -0.56347129 -3.7875855 -0.54108364 0 0 Z " fill="#221714" transform="translate(144,318)"/>
<path d="M0 0 C3.29291844 2.11084515 3.88775952 3.64347142 5.0625 7.375 C4.9961613 11.2226445 4.39383567 12.51698516 1.89233398 15.34082031 C-2.36211008 19.07107471 -7.5378475 21.53062178 -12.5 24.1875 C-14.73978673 25.40978361 -16.97937731 26.63242674 -19.21875 27.85546875 C-20.20810547 28.38809326 -21.19746094 28.92071777 -22.21679688 29.46948242 C-24.07843265 30.4932188 -25.91701781 31.55998521 -27.73022461 32.66723633 C-31.44674725 34.84949911 -33.73784277 34.54122631 -38 34 C-41.195316 31.4437472 -42.29149705 29.04383397 -42.75 25.0625 C-42.55438866 22.60709468 -42.35467826 21.37185443 -40.63378906 19.56762695 C-34.30112073 15.06143523 -27.70669987 11.04864754 -21 7.125 C-19.85155467 6.42970043 -18.70311713 5.734388 -17.5546875 5.0390625 C-6.99212054 -1.13673071 -6.99212054 -1.13673071 0 0 Z " fill="#221714" transform="translate(396,173)"/>
<path d="M0 0 C3.92945704 1.7470377 7.5957158 3.8529881 11.27246094 6.07910156 C12.98645465 7.11679928 14.71588821 8.12885297 16.4453125 9.140625 C33.46287449 19.20902014 33.46287449 19.20902014 34.62280273 23.07666016 C34.99259414 26.9478098 34.1550135 28.77452582 31.9375 32 C28.24131977 34.51654824 26.41147199 34.36579515 22 34 C19.03735352 32.79418945 19.03735352 32.79418945 16.12890625 31.11328125 C15.05962891 30.50419922 13.99035156 29.89511719 12.88867188 29.26757812 C11.79103516 28.62240234 10.69339844 27.97722656 9.5625 27.3125 C8.46873047 26.68666016 7.37496094 26.06082031 6.24804688 25.41601562 C3.15036196 23.63498667 0.0735516 21.82226997 -3 20 C-3.82387207 19.52739746 -4.64774414 19.05479492 -5.49658203 18.56787109 C-6.21056152 18.14715332 -6.92454102 17.72643555 -7.66015625 17.29296875 C-8.26609619 16.94129639 -8.87203613 16.58962402 -9.49633789 16.22729492 C-11.40309484 14.67099241 -12.13397418 13.29419929 -13 11 C-12.86470518 7.21174497 -12.49240979 4.76815927 -10.4375 1.5625 C-6.90585626 -0.70137419 -4.01037797 -0.7952049 0 0 Z " fill="#221714" transform="translate(115,173)"/>
<path d="M0 0 C3.94800307 0.96968496 5.37555013 1.4633582 7.5625 4.875 C8.05604668 10.90881531 7.35105446 14.24187322 4.23828125 19.5703125 C3.8950029 20.16625214 3.55172455 20.76219177 3.19804382 21.37619019 C2.4738364 22.62610785 1.74142243 23.87130362 1.0012207 25.11181641 C-0.12079677 26.99295301 -1.21752779 28.88705208 -2.31054688 30.78515625 C-11.23447676 46.09893499 -11.23447676 46.09893499 -15.5 47.6015625 C-19.01913569 47.41709168 -21.23065027 46.97842487 -24.4375 45.375 C-26.67456341 42.57867074 -27.01388025 40.89277441 -26.91894531 37.34960938 C-25.85109589 31.86090668 -22.61480933 27.13948971 -19.8125 22.375 C-19.19503906 21.28574219 -18.57757813 20.19648438 -17.94140625 19.07421875 C-6.84291802 -0.24883338 -6.84291802 -0.24883338 0 0 Z " fill="#221714" transform="translate(333.4375,113.125)"/>
<path d="M0 0 C5.00465616 5.43124328 8.55233333 11.65319693 12.21313477 18.03100586 C13.3127758 19.93797829 14.4341974 21.830992 15.55664062 23.72460938 C16.26439672 24.949727 16.97082337 26.17561383 17.67578125 27.40234375 C18.31427002 28.50054443 18.95275879 29.59874512 19.6105957 30.73022461 C21.19456434 34.45788091 21.40810598 36.98810565 21 41 C19.00823896 43.92539902 17.55075925 45.58729794 14.0625 46.515625 C10.25523013 46.83289749 10.25523013 46.83289749 8 46 C3.06868713 40.51722196 -0.54587389 34.39238105 -4.21313477 28.02392578 C-5.31135901 26.12697082 -6.4335017 24.24556299 -7.55664062 22.36328125 C-8.26454255 21.14150542 -8.97097357 19.91887592 -9.67578125 18.6953125 C-10.31427002 17.60234863 -10.95275879 16.50938477 -11.6105957 15.38330078 C-13.3481905 11.15213074 -13.39039129 8.54041394 -13 4 C-9.39565646 -0.84722062 -5.70716144 -1.71214843 0 0 Z " fill="#221714" transform="translate(175,114)"/>
<path d="M0 0 C0.89110474 -0.00619858 1.78220947 -0.01239716 2.70031738 -0.01878357 C4.57966014 -0.0258705 6.45906582 -0.02272741 8.33837891 -0.01000977 C11.2098357 0.00386318 14.07803664 -0.03023763 16.94921875 -0.06835938 C18.77864663 -0.06931057 20.60807858 -0.0674517 22.4375 -0.0625 C23.29283325 -0.07575821 24.1481665 -0.08901642 25.02941895 -0.10267639 C29.38453501 -0.03481515 31.19460622 0.16695254 34.76367188 2.88696289 C36.71875 5.56640625 36.71875 5.56640625 37.28125 9.06640625 C36.6029879 13.28670379 35.88877679 14.70223281 32.71875 17.56640625 C29.5031557 18.30824346 26.35036315 18.24335325 23.0625 18.1953125 C21.65357483 18.19893044 21.65357483 18.19893044 20.21618652 18.20262146 C18.23246026 18.20164299 16.2487067 18.1882493 14.26513672 18.16333008 C11.22919941 18.12902433 8.19617313 18.14266981 5.16015625 18.16210938 C3.23175845 18.1552108 1.30336815 18.14553831 -0.625 18.1328125 C-1.53237915 18.13777237 -2.4397583 18.14273224 -3.37463379 18.14784241 C-9.65280792 18.03055366 -9.65280792 18.03055366 -12.84936523 15.66967773 C-14.48416599 13.26834636 -14.84869529 11.95445755 -14.84375 9.06640625 C-14.86566406 8.31359375 -14.88757813 7.56078125 -14.91015625 6.78515625 C-12.90674023 -0.28279593 -6.04850254 -0.03507379 0 0 Z " fill="#221714" transform="translate(95.28125,253.43359375)"/>
<path d="M0 0 C0.89110474 -0.00478363 1.78220947 -0.00956726 2.70031738 -0.01449585 C4.57968924 -0.01789022 6.4591205 -0.00872012 8.33837891 0.01220703 C11.21000198 0.03898094 14.07771679 0.01244539 16.94921875 -0.01953125 C18.77865443 -0.01622707 20.60808769 -0.00982066 22.4375 0 C23.29283325 -0.01012115 24.1481665 -0.02024231 25.02941895 -0.03067017 C29.38068344 0.05459213 31.19955077 0.26800241 34.76367188 2.98681641 C36.71875 5.6640625 36.71875 5.6640625 37.28125 9.1640625 C36.60294608 13.38462021 35.88754086 14.79829479 32.71875 17.6640625 C29.50476662 18.4165786 26.35143212 18.36481065 23.0625 18.328125 C22.12321655 18.33290863 21.18393311 18.33769226 20.21618652 18.34262085 C18.2324862 18.34601971 16.24872985 18.3368182 14.26513672 18.31591797 C11.22887268 18.28915174 8.19630532 18.3156657 5.16015625 18.34765625 C3.23176267 18.34435215 1.3033714 18.33794591 -0.625 18.328125 C-1.98606873 18.34330673 -1.98606873 18.34330673 -3.37463379 18.35879517 C-9.64190509 18.24226854 -9.64190509 18.24226854 -12.84960938 15.34130859 C-14.75656675 11.77519423 -14.92239106 9.65338462 -14.28125 5.6640625 C-10.16112566 0.02204408 -6.4916922 -0.07681617 0 0 Z " fill="#221714" transform="translate(385.28125,253.3359375)"/>
<path d="M0 0 C2.74135638 2.00189512 4.67223035 3.59667868 5.46759033 7.00195312 C5.66211603 9.44189706 5.69302452 11.83368532 5.6640625 14.28125 C5.66884613 15.17235474 5.67362976 16.06345947 5.67855835 16.98156738 C5.68195272 18.86093924 5.67278262 20.7403705 5.65185547 22.61962891 C5.62508156 25.49125198 5.65161711 28.35896679 5.68359375 31.23046875 C5.68028957 33.05990443 5.67388316 34.88933769 5.6640625 36.71875 C5.67418365 37.57408325 5.68430481 38.4294165 5.69473267 39.31066895 C5.60947037 43.66193344 5.39606009 45.48080077 2.67724609 49.04492188 C0 51 0 51 -3.5 51.5625 C-7.72055771 50.88419608 -9.13423229 50.16879086 -12 47 C-12.7525161 43.78601662 -12.70074815 40.63268212 -12.6640625 37.34375 C-12.66884613 36.40446655 -12.67362976 35.46518311 -12.67855835 34.49743652 C-12.68195721 32.5137362 -12.6727557 30.52997985 -12.65185547 28.54638672 C-12.62508924 25.51012268 -12.6516032 22.47755532 -12.68359375 19.44140625 C-12.68028965 17.51301267 -12.67388341 15.5846214 -12.6640625 13.65625 C-12.67418365 12.74887085 -12.68430481 11.8414917 -12.69473267 10.90661621 C-12.57820604 4.63934491 -12.57820604 4.63934491 -9.67724609 1.43164062 C-6.11113173 -0.47531675 -3.98932212 -0.64114106 0 0 Z " fill="#221714" transform="translate(255,92)"/>
</svg>
